#N canvas 0 0 1440 878 10;
#X text 221 102 Common Messages;
#X text 222 471 Common Attributes;
#X text 916 109 Object-specific Messages;
#X text 917 478 Object-specific Attributes;
#X obj 166 278 s ml.object;
#X obj 168 576 s ml.object;
#X obj 896 260 s ml.object;
#X obj 897 603 s ml.object;
#X obj 171 673 r ml.object;
#X obj 171 694 ml.object;
#X floatatom 174 772 5 0 0 0 - - -, f 5;
#X obj 214 725 list prepend set;
#X obj 214 748 list trim;
#X obj 174 794 print;
#X obj 214 794 print;
#X msg 214 773;
#X connect 8 0 9 0;
#X connect 10 0 13 0;
#X connect 11 0 12 0;
#X connect 12 0 15 0;
#X connect 15 0 14 0;
