#N canvas 0 0 1440 878 10;
#X text 323 245 class;
#X obj 165 575 outlet;
#X msg 151 102 clear;
#X obj 237 227 hradio 15 1 0 8 empty empty empty 0 -8 0 10 -262144
-1 -1 2;
#X floatatom 299 269 5 0 0 0 - - -, f 5;
#X msg 888 299 0.00166321 0.0206909 -1.00471;
#X msg 150 150 normalise;
#X msg 405 100 train;
#X msg 301 404 add 3 -0.949783 0.220367 -0.107635;
#X obj 237 269 t b float;
#X text 138 84 1 clear;
#X text 223 207 3 give examples;
#X text 222 85 2 training mode;
#X text 391 81 4 train;
#X text 582 81 5 mapping mode;
#X obj 596 311 list prepend map;
#X obj 237 315 list prepend;
#X obj 237 338 list prepend add;
#X obj 301 361 list prepend set;
#X obj 237 291 list append;
#X obj 888 249 list prepend set;
#X obj 596 221 spigot;
#X obj 403 219 spigot;
#X obj 596 101 bng 15 250 50 0 empty empty empty 17 7 0 10 -262144
-1 -1;
#X obj 237 103 bng 15 250 50 0 empty empty empty 17 7 0 10 -262144
-1 -1;
#X obj 596 332 list trim;
#X obj 237 362 list trim;
#X obj 301 383 list trim;
#X obj 237 247 + 1;
#X msg 403 288 -0.434814 -0.191467 -0.887222;
#X obj 403 245 list prepend set;
#X obj 403 267 list trim;
#X msg 623 287 -0.0467682 -0.483917 -0.848923;
#X obj 623 242 list prepend set;
#X obj 623 264 list trim;
#X obj 380 289 bng 15 250 50 0 empty empty empty 17 7 0 10 -262144
-1 -1;
#X obj 603 288 bng 15 250 50 0 empty empty empty 17 7 0 10 -262144
-1 -1;
#X msg 237 147 1;
#X msg 300 146 0;
#X obj 237 124 t bang bang;
#X obj 596 123 t bang bang;
#X msg 596 143 1;
#X msg 659 144 0;
#X obj 825 177 oscparse;
#X obj 825 153 netreceive -u -b;
#X msg 825 129 listen 5000;
#X obj 825 104 loadbang;
#X obj 825 225 route accxyz;
#X obj 825 201 list trim;
#X obj 888 275 list trim;
#X obj 596 51 inlet;
#X text 823 80 test data: TouchOSC accxyz;
#X obj 825 248 s data;
#X obj 403 197 r data;
#X obj 596 198 r data;
#X obj 151 123 s out;
#X obj 150 171 s out;
#X obj 405 121 s out;
#X obj 165 554 r out;
#X obj 237 383 s out;
#X obj 596 353 s out;
#X obj 237 168 s spig1;
#X obj 659 165 s spig1;
#X obj 300 167 s spig2;
#X obj 596 166 s spig2;
#X obj 643 199 r spig2;
#X obj 46 107 inlet;
#X obj 46 128 s out;
#X text 41 85 receive msgs;
#X obj 237 59 inlet;
#X obj 450 197 r spig1;
#X connect 2 0 55 0;
#X connect 3 0 28 0;
#X connect 6 0 56 0;
#X connect 7 0 57 0;
#X connect 9 0 19 0;
#X connect 9 1 4 0;
#X connect 9 1 16 1;
#X connect 15 0 25 0;
#X connect 16 0 17 0;
#X connect 17 0 18 0;
#X connect 17 0 26 0;
#X connect 18 0 27 0;
#X connect 19 0 16 0;
#X connect 20 0 49 0;
#X connect 21 0 15 0;
#X connect 21 0 33 0;
#X connect 21 0 36 0;
#X connect 22 0 30 0;
#X connect 22 0 35 0;
#X connect 22 0 19 1;
#X connect 23 0 40 0;
#X connect 24 0 39 0;
#X connect 25 0 60 0;
#X connect 26 0 59 0;
#X connect 27 0 8 0;
#X connect 28 0 9 0;
#X connect 30 0 31 0;
#X connect 31 0 29 0;
#X connect 33 0 34 0;
#X connect 34 0 32 0;
#X connect 37 0 61 0;
#X connect 38 0 63 0;
#X connect 39 0 37 0;
#X connect 39 1 38 0;
#X connect 40 0 41 0;
#X connect 40 1 42 0;
#X connect 41 0 64 0;
#X connect 42 0 62 0;
#X connect 43 0 48 0;
#X connect 44 0 43 0;
#X connect 45 0 44 0;
#X connect 46 0 45 0;
#X connect 47 0 20 0;
#X connect 47 0 52 0;
#X connect 48 0 47 0;
#X connect 49 0 5 0;
#X connect 50 0 23 0;
#X connect 53 0 22 0;
#X connect 54 0 21 0;
#X connect 58 0 1 0;
#X connect 65 0 21 1;
#X connect 66 0 67 0;
#X connect 69 0 24 0;
#X connect 70 0 22 1;
#X coords 0 878 1 877 85 60 0;
