#N canvas 0 23 1440 828 10;
#X text 163 530 class;
#X obj 55 725 outlet;
#X msg 41 157 clear;
#X obj 77 362 hradio 15 1 0 8 empty empty empty 0 -8 0 10 -262144 -1
-1 0;
#X floatatom 139 554 5 0 0 0 - - -, f 5;
#X msg 778 354 0.00166321 0.0206909 -1.00471;
#X msg 40 205 normalise;
#X msg 295 155 train;
#X msg 141 689 add 5;
#X obj 77 554 t b float;
#X text 28 99 1 clear;
#X text 63 342 3 give examples;
#X text 112 100 2 training mode;
#X text 281 96 4 train;
#X text 472 96 5 mapping mode;
#X obj 486 366 list prepend map;
#X obj 77 600 list prepend;
#X obj 77 623 list prepend add;
#X obj 141 646 list prepend set;
#X obj 77 576 list append;
#X obj 778 304 list prepend set;
#X obj 486 276 spigot;
#X obj 293 404 spigot;
#X obj 486 156 bng 15 250 50 0 empty empty empty 17 7 0 10 -262144
-1 -1;
#X obj 127 158 bng 15 250 50 0 empty empty empty 17 7 0 10 -262144
-1 -1;
#X obj 486 387 list trim;
#X obj 77 647 list trim;
#X obj 141 668 list trim;
#X obj 77 532 + 1;
#X msg 293 473 -0.434814 -0.191467 -0.887222;
#X obj 293 430 list prepend set;
#X obj 293 452 list trim;
#X msg 513 342 -0.0467682 -0.483917 -0.848923;
#X obj 513 297 list prepend set;
#X obj 513 319 list trim;
#X obj 270 474 bng 15 250 50 0 empty empty empty 17 7 0 10 -262144
-1 -1;
#X obj 493 343 bng 15 250 50 0 empty empty empty 17 7 0 10 -262144
-1 -1;
#X msg 127 202 1;
#X msg 190 201 0;
#X obj 127 179 t bang bang;
#X obj 486 178 t bang bang;
#X msg 486 198 1;
#X msg 549 199 0;
#X obj 715 232 oscparse;
#X obj 715 208 netreceive -u -b;
#X msg 715 184 listen 5000;
#X obj 715 159 loadbang;
#X obj 715 280 route accxyz;
#X obj 715 256 list trim;
#X obj 778 330 list trim;
#X text 713 95 test data: TouchOSC accxyz;
#X obj 41 178 s out;
#X obj 573 567 hradio 15 0 0 5 empty empty /example 0 -10 0 10 -262144
-1 -1 0;
#X obj 522 565 bng 15 250 50 0 empty empty /train -7 -10 0 10 -262144
-1 -1;
#X obj 521 532 bng 15 250 50 0 empty empty /clear -7 -10 0 10 -262144
-1 -1;
#X obj 572 532 tgl 15 0 empty empty /mode -4 -10 0 10 -262144 -1 -1
0 1;
#X obj 564 646 sel 0;
#X msg 593 531 /trainMode;
#X obj 41 5 inlet;
#X obj 40 75 s \$0clear;
#X obj 40 226 s \$0out;
#X obj 127 223 s \$0spig1;
#X obj 190 222 s \$0spig2;
#X obj 295 176 s \$0out;
#X obj 486 221 s \$0spig2;
#X obj 549 220 s \$0spig1;
#X obj 486 253 r \$0data;
#X obj 543 253 r \$0spig2;
#X obj 715 384 s \$0data;
#X obj 417 9 inlet;
#X obj 417 31 s \$0data;
#X obj 293 382 r \$0data;
#X obj 350 382 r \$0spig1;
#X obj 77 668 s \$0out;
#X obj 486 408 s \$0out;
#X obj 55 704 r \$0out;
#X obj 41 131 r \$0clear;
#X obj 127 131 r \$0trainMode;
#X obj 102 75 s \$0trainMode;
#X obj 189 75 s \$0train;
#X obj 252 75 s \$0mapMode;
#X obj 484 130 r \$0mapMode;
#X obj 294 129 r \$0train;
#X obj 327 76 s \$0example;
#X obj 66 319 r \$0example;
#X msg 604 683 set /mapMode;
#X msg 689 682 set /trainMode;
#X obj 591 743 s \$0trainMode;
#X obj 511 743 s \$0mapMode;
#X obj 662 449 r \$0mapMode;
#X obj 572 449 r \$0trainMode;
#X msg 572 471 set 1;
#X msg 662 471 set 0;
#X obj 744 450 r \$0example;
#X msg 744 472 set \$1;
#X text 806 560 inlet 1: control msgs;
#X text 806 582 inlet 2: data in;
#X obj 791 684 s \$0example;
#X obj 430 565 s \$0clear;
#X obj 431 600 s \$0train;
#X msg 826 481 number \$1;
#X obj 826 445 f \$1;
#X obj 826 419 loadbang;
#X obj 911 469 == 0;
#X msg 911 521 5;
#X obj 911 491 sel 1;
#X obj 666 532 tgl 15 0 empty empty /listen -4 -10 0 10 -262144 -1
-1 0 1;
#X obj 195 307 spigot;
#X obj 255 282 r \$0listen;
#X obj 195 281 r \$0data;
#X obj 868 684 s \$0listen;
#X obj 405 76 s \$0listen;
#X msg 973 460 set \$1;
#X obj 973 438 r \$0listen;
#X obj 73 459 spigot;
#X obj 113 405 r \$0listen;
#X obj 370 304 expr;
#X obj 113 427 == 0;
#X obj 304 642 tgl 15 0 empty empty empty 17 7 0 10 -262144 -1 -1 0
1;
#X obj 198 402 f;
#X obj 195 333 t b b;
#X obj 41 28 route /clear /trainMode /train /mapMode /example /listen
/record, f 60;
#X obj 478 77 s \$0record;
#X msg 984 658 record \$1;
#X obj 984 680 s \$0out;
#X obj 984 637 r \$0record;
#X obj 868 712 s \$0record;
#X connect 2 0 51 0;
#X connect 3 0 114 0;
#X connect 3 0 119 1;
#X connect 6 0 60 0;
#X connect 7 0 63 0;
#X connect 9 0 19 0;
#X connect 9 1 4 0;
#X connect 9 1 16 1;
#X connect 15 0 25 0;
#X connect 16 0 17 0;
#X connect 17 0 18 0;
#X connect 17 0 26 0;
#X connect 18 0 27 0;
#X connect 19 0 16 0;
#X connect 20 0 49 0;
#X connect 21 0 15 0;
#X connect 21 0 33 0;
#X connect 21 0 36 0;
#X connect 22 0 30 0;
#X connect 22 0 35 0;
#X connect 22 0 19 1;
#X connect 23 0 40 0;
#X connect 24 0 39 0;
#X connect 25 0 74 0;
#X connect 26 0 73 0;
#X connect 27 0 8 0;
#X connect 28 0 9 0;
#X connect 30 0 31 0;
#X connect 31 0 29 0;
#X connect 33 0 34 0;
#X connect 34 0 32 0;
#X connect 37 0 61 0;
#X connect 38 0 62 0;
#X connect 39 0 37 0;
#X connect 39 1 38 0;
#X connect 40 0 41 0;
#X connect 40 1 42 0;
#X connect 41 0 64 0;
#X connect 42 0 65 0;
#X connect 43 0 48 0;
#X connect 44 0 43 0;
#X connect 45 0 44 0;
#X connect 46 0 45 0;
#X connect 47 0 20 0;
#X connect 48 0 47 0;
#X connect 49 0 5 0;
#X connect 52 0 97 0;
#X connect 53 0 99 0;
#X connect 54 0 98 0;
#X connect 55 0 56 0;
#X connect 56 0 85 0;
#X connect 56 0 88 0;
#X connect 56 1 86 0;
#X connect 56 1 87 0;
#X connect 58 0 121 0;
#X connect 66 0 21 0;
#X connect 67 0 21 1;
#X connect 69 0 70 0;
#X connect 71 0 22 0;
#X connect 72 0 22 1;
#X connect 75 0 1 0;
#X connect 76 0 2 0;
#X connect 77 0 24 0;
#X connect 81 0 23 0;
#X connect 82 0 7 0;
#X connect 84 0 3 0;
#X connect 85 0 57 0;
#X connect 86 0 57 0;
#X connect 89 0 92 0;
#X connect 90 0 91 0;
#X connect 91 0 55 0;
#X connect 92 0 55 0;
#X connect 93 0 94 0;
#X connect 94 0 52 0;
#X connect 100 0 52 0;
#X connect 101 0 100 0;
#X connect 101 0 103 0;
#X connect 102 0 101 0;
#X connect 103 0 105 0;
#X connect 104 0 100 0;
#X connect 105 0 104 0;
#X connect 106 0 110 0;
#X connect 106 0 126 0;
#X connect 107 0 120 0;
#X connect 108 0 107 1;
#X connect 109 0 107 0;
#X connect 112 0 106 0;
#X connect 113 0 112 0;
#X connect 114 0 28 0;
#X connect 115 0 117 0;
#X connect 117 0 114 1;
#X connect 119 0 28 0;
#X connect 120 0 119 0;
#X connect 120 1 3 0;
#X connect 121 0 59 0;
#X connect 121 1 78 0;
#X connect 121 2 79 0;
#X connect 121 3 80 0;
#X connect 121 4 83 0;
#X connect 121 5 111 0;
#X connect 121 6 122 0;
#X connect 123 0 124 0;
#X connect 125 0 123 0;
#X coords 0 -1 1 1 220 100 1 500 500;
